<svg xmlns="http://www.w3.org/2000/svg" version="1.0" width="128.000000pt" height="128.000000pt" viewBox="0 0 128.000000 128.000000" preserveAspectRatio="xMidYMid meet">

<g transform="translate(0.000000,128.000000) scale(0.100000,-0.100000)" fill="#f2ba37" stroke="none">
<path d="M619 1259 c-12 -23 1 -69 20 -69 20 0 34 41 22 66 -13 30 -27 30 -42 3z" fill="#f2ba37"/>
<path d="M483 1215 c-7 -20 24 -55 49 -55 24 0 24 32 0 53 -23 21 -41 22 -49 2z" fill="#f2ba37"/>
<path d="M747 1212 c-23 -25 -22 -52 1 -52 25 0 56 35 49 55 -8 20 -30 19 -50 -3z" fill="#f2ba37"/>
<path d="M575 1129 c-11 -6 -31 -24 -45 -39 -24 -27 -27 -28 -67 -17 -85 22 -143 -35 -143 -141 0 -36 7 -59 25 -86 13 -20 19 -36 13 -36 -6 0 -31 -9 -54 -20 -32 -16 -46 -31 -58 -61 -34 -85 -14 -119 70 -119 l54 0 0 -49 c0 -29 5 -53 14 -60 9 -8 45 -11 98 -9 75 3 83 5 83 23 0 13 -8 21 -22 23 -19 3 -23 10 -23 37 0 35 -20 51 -39 32 -6 -6 -11 -24 -11 -39 0 -23 -4 -28 -25 -28 -22 0 -25 4 -25 35 0 78 38 122 118 140 32 7 33 5 58 -49 34 -74 54 -74 88 0 25 54 26 56 58 49 80 -18 118 -62 118 -140 0 -31 -3 -35 -25 -35 -21 0 -25 5 -25 28 0 15 -5 33 -11 39 -19 19 -39 3 -39 -32 0 -27 -4 -34 -22 -37 -15 -2 -23 -10 -23 -23 0 -18 8 -20 83 -23 53 -2 89 1 98 9 9 7 14 31 14 60 l0 49 54 0 c58 0 86 16 86 49 0 72 -36 123 -100 142 l-38 11 24 36 c17 25 24 49 24 84 0 107 -58 164 -143 140 -40 -10 -43 -10 -61 14 -10 13 -31 31 -47 39 -33 17 -105 19 -134 4z m130 -64 c34 -33 32 -46 -3 -33 -24 9 -33 8 -58 -10 -16 -11 -44 -23 -61 -27 -31 -6 -33 -5 -33 20 0 41 41 75 90 75 30 0 47 -6 65 -25z m-231 -54 c20 -22 14 -26 -58 -36 -51 -8 -59 2 -26 35 25 25 62 26 84 1z m416 -1 c33 -33 25 -43 -26 -35 -72 10 -78 14 -58 36 22 25 59 24 84 -1z m-171 -46 c19 -14 22 -22 16 -53 -8 -45 -21 -60 -62 -78 -28 -11 -38 -11 -67 1 -36 15 -49 32 -60 78 -6 25 -3 28 31 33 21 3 52 12 68 20 39 18 46 18 74 -1z m-245 -95 c-22 -25 -59 -24 -84 1 -34 34 -25 47 38 56 55 9 57 8 60 -14 2 -13 -4 -32 -14 -43z m436 35 c0 -21 -38 -54 -62 -54 -30 0 -58 28 -58 60 l0 27 60 -10 c39 -6 60 -14 60 -23z m-375 -84 c14 -15 15 -20 4 -20 -22 0 -42 17 -35 29 9 14 10 14 31 -9z m235 -10 c-8 -5 -21 -10 -29 -10 -11 0 -10 5 4 20 13 15 22 17 29 10 8 -8 6 -14 -4 -20z m-320 -24 c0 -7 10 -16 23 -20 21 -6 20 -7 -11 -23 -19 -9 -43 -29 -55 -45 -18 -25 -27 -28 -74 -28 -59 0 -66 11 -33 52 11 15 38 30 65 37 25 6 48 18 51 26 8 19 34 20 34 1z m413 0 c3 -8 30 -21 60 -30 40 -11 57 -22 65 -41 19 -41 15 -45 -41 -45 -47 0 -56 3 -74 28 -12 16 -36 36 -55 45 -31 16 -32 17 -10 23 12 4 22 13 22 20 0 18 26 18 33 0z m-193 -20 c0 -14 -24 -66 -30 -66 -6 0 -30 52 -30 66 0 2 14 4 30 4 17 0 30 -2 30 -4z" fill="#f2ba37"/>
<path d="M29 861 l-29 -29 0 -224 c0 -251 5 -278 66 -361 34 -47 56 -56 62 -26 1 9 -13 41 -32 73 -44 74 -48 99 -44 335 3 174 5 195 21 205 15 9 21 7 33 -8 11 -16 14 -58 14 -193 0 -125 4 -183 14 -206 7 -18 48 -68 89 -112 71 -75 77 -79 93 -63 16 16 12 22 -55 96 -39 43 -71 86 -71 96 0 9 11 21 24 27 21 10 33 5 99 -40 112 -78 144 -131 178 -304 22 -107 39 -141 61 -119 10 10 8 36 -10 125 -39 189 -84 261 -220 352 -67 45 -98 53 -132 35 -18 -10 -19 -2 -22 156 l-3 166 -28 24 c-38 32 -72 31 -108 -5z" fill="#f2ba37"/>
<path d="M1143 866 l-28 -24 -3 -166 c-3 -158 -4 -166 -22 -156 -34 18 -65 10 -132 -35 -136 -91 -181 -163 -220 -352 -18 -89 -20 -115 -10 -125 22 -22 39 12 61 119 34 173 66 226 178 304 66 45 78 50 99 40 13 -6 24 -18 24 -27 0 -10 -32 -53 -71 -96 -67 -74 -71 -80 -55 -96 16 -16 22 -12 93 63 41 44 82 94 89 112 10 23 14 81 14 206 0 135 3 177 14 193 12 15 18 17 33 8 17 -10 18 -30 18 -240 0 -266 11 -230 -132 -432 -91 -126 -106 -162 -69 -162 19 0 222 286 241 340 12 33 15 93 15 267 l0 225 -29 29 c-36 36 -70 37 -108 5z" fill="#f2ba37"/>
<path d="M623 524 c-8 -21 13 -42 28 -27 13 13 5 43 -11 43 -6 0 -13 -7 -17 -16z" fill="#f2ba37"/>
<path d="M145 160 c-4 -7 -3 -16 3 -22 14 -14 45 -2 40 15 -6 16 -34 21 -43 7z" fill="#f2ba37"/>
<path d="M195 89 c-9 -14 42 -89 60 -89 28 0 28 29 1 65 -27 35 -49 44 -61 24z" fill="#f2ba37"/>
</g>
</svg>