<svg xmlns="http://www.w3.org/2000/svg" version="1.0" width="128.000000pt" height="128.000000pt" viewBox="0 0 128.000000 128.000000" preserveAspectRatio="xMidYMid meet">

<g transform="translate(0.000000,128.000000) scale(0.100000,-0.100000)" fill="#f2ba37" stroke="none">
<path d="M815 1266 c-42 -18 -83 -69 -91 -111 -3 -20 -20 -50 -37 -68 -43 -46 -66 -103 -73 -188 -5 -56 -13 -81 -30 -102 -13 -16 -24 -40 -24 -53 0 -28 41 -74 64 -74 9 0 25 -20 37 -45 12 -25 41 -63 66 -85 38 -33 44 -43 41 -71 -3 -32 -4 -33 -72 -46 -94 -17 -151 -55 -187 -125 -24 -48 -24 -56 4 -60 16 -2 27 6 42 31 35 60 84 91 160 102 78 11 100 26 109 75 7 33 8 34 56 34 47 0 49 -1 55 -33 10 -47 32 -65 84 -72 87 -12 103 -17 137 -47 55 -49 67 -81 68 -183 l1 -90 -227 -3 -228 -2 0 -25 0 -25 253 2 252 3 3 103 c1 56 -2 120 -8 141 -25 93 -97 154 -205 174 -69 13 -70 14 -73 46 -3 28 3 38 41 71 25 22 54 60 66 85 12 25 28 45 37 45 23 0 64 46 64 74 0 13 -11 37 -24 53 -17 21 -25 46 -30 102 -7 85 -30 142 -73 188 -17 18 -34 48 -37 68 -18 94 -130 151 -221 111z m138 -74 c34 -32 35 -44 1 -32 -14 6 -47 10 -74 10 -27 0 -60 -4 -74 -10 -34 -12 -33 0 2 32 46 44 97 44 145 0z m-10 -83 c82 -22 146 -111 147 -202 0 -46 -1 -48 -22 -41 -44 13 -67 45 -82 117 -9 40 -41 36 -56 -8 -20 -62 -88 -101 -197 -114 l-63 -7 0 50 c1 147 131 245 273 205z m115 -299 c22 0 10 -125 -18 -180 -36 -71 -124 -109 -206 -89 -89 23 -144 106 -144 217 0 42 11 52 57 52 46 0 129 30 163 59 l35 29 48 -44 c27 -24 56 -44 65 -44z m-418 -66 c0 -22 -2 -24 -14 -14 -8 6 -12 18 -9 26 9 23 23 16 23 -12z m503 12 c3 -8 -1 -20 -9 -26 -12 -10 -14 -8 -14 14 0 28 14 35 23 12z" fill="#f2ba37"/>
<path d="M7 1113 c-4 -3 -7 -185 -7 -403 0 -295 3 -399 12 -408 9 -9 73 -12 225 -12 l213 0 0 30 0 30 -200 0 -200 0 2 358 3 357 268 3 267 2 0 25 0 25 -288 0 c-159 0 -292 -3 -295 -7z" fill="#f2ba37"/>
<path d="M1150 1096 c0 -21 5 -25 38 -28 l37 -3 3 -332 2 -333 25 0 25 0 -2 358 -3 357 -62 3 c-61 3 -63 2 -63 -22z" fill="#f2ba37"/>
<path d="M110 985 l0 -25 130 0 130 0 0 25 0 25 -130 0 -130 0 0 -25z" fill="#f2ba37"/>
<path d="M400 985 c0 -20 5 -25 25 -25 20 0 25 5 25 25 0 20 -5 25 -25 25 -20 0 -25 -5 -25 -25z" fill="#f2ba37"/>
<path d="M110 880 c0 -25 4 -30 25 -30 21 0 25 5 25 30 0 25 -4 30 -25 30 -21 0 -25 -5 -25 -30z" fill="#f2ba37"/>
<path d="M190 880 l0 -30 130 0 130 0 0 30 0 30 -130 0 -130 0 0 -30z" fill="#f2ba37"/>
<path d="M110 775 c0 -23 3 -25 50 -25 47 0 50 2 50 25 0 23 -3 25 -50 25 -47 0 -50 -2 -50 -25z" fill="#f2ba37"/>
<path d="M240 775 c0 -24 2 -25 65 -25 63 0 65 1 65 25 0 24 -2 25 -65 25 -63 0 -65 -1 -65 -25z" fill="#f2ba37"/>
<path d="M400 775 c0 -20 5 -25 25 -25 20 0 25 5 25 25 0 20 -5 25 -25 25 -20 0 -25 -5 -25 -25z" fill="#f2ba37"/>
<path d="M194 226 c-3 -7 -4 -42 -2 -77 l3 -64 128 -3 127 -3 0 -28 c0 -47 16 -52 146 -49 l119 3 3 38 3 37 123 0 c81 0 126 4 134 12 18 18 15 123 -3 138 -30 25 -273 -13 -355 -55 -29 -15 -34 -15 -98 11 -107 43 -317 69 -328 40z m240 -66 c98 -22 85 -29 -56 -30 l-138 0 0 28 0 28 73 -7 c39 -4 94 -12 121 -19z m493 -26 c-2 -3 -62 -3 -133 -2 l-129 3 59 19 c33 10 91 21 130 25 69 6 71 5 74 -17 2 -13 2 -26 -1 -28z m-259 -66 c-3 -9 -31 -14 -81 -16 -64 -2 -77 0 -77 13 0 12 15 15 81 15 60 0 80 -3 77 -12z" fill="#f2ba37"/>
</g>
</svg>