<svg xmlns="http://www.w3.org/2000/svg" version="1.0" width="128.000000pt" height="128.000000pt" viewBox="0 0 128.000000 128.000000" preserveAspectRatio="xMidYMid meet">

<g transform="translate(0.000000,128.000000) scale(0.100000,-0.100000)" fill="#f2ba37" stroke="none">
<path d="M640 1265 c-6 -7 -10 -37 -8 -67 l3 -53 59 -3 c67 -3 79 6 64 48 -18 54 -95 103 -118 75z m71 -66 c8 -16 6 -19 -16 -19 -20 0 -25 5 -25 25 0 28 24 25 41 -6z" fill="#f2ba37"/>
<path d="M1124 1268 c-4 -6 0 -16 9 -23 14 -10 11 -16 -28 -48 l-43 -37 -67 31 -67 30 -31 -25 c-18 -13 -54 -44 -81 -68 -41 -36 -46 -45 -34 -55 12 -10 27 -2 80 42 37 30 71 55 76 55 6 0 34 -11 64 -25 29 -14 58 -25 64 -25 6 0 32 19 58 42 38 33 50 38 57 27 6 -10 3 -15 -9 -18 -39 -8 -42 -20 -44 -165 l-2 -141 -5 100 -6 100 -52 3 -53 3 0 -95 c0 -143 -19 -130 -22 16 l-3 123 -50 0 -50 0 -3 -122 c-3 -133 -22 -174 -22 -48 l0 75 -55 0 -55 0 0 -71 c0 -56 -4 -76 -20 -96 -23 -29 -26 -63 -8 -81 9 -9 84 -12 275 -12 240 0 263 1 272 18 11 22 3 68 -15 83 -11 9 -14 45 -14 156 0 140 -1 144 -22 153 -13 5 -17 9 -10 9 19 1 16 87 -4 95 -26 10 -72 7 -80 -6z m76 -269 c0 -100 -3 -130 -12 -127 -9 3 -14 38 -16 118 -3 117 0 140 18 140 6 0 10 -48 10 -131z m-250 -24 c0 -87 -3 -105 -15 -105 -12 0 -15 18 -15 105 0 87 3 105 15 105 12 0 15 -18 15 -105z m128 -22 c-2 -50 -7 -78 -15 -81 -10 -3 -13 17 -13 77 0 66 3 81 15 81 13 0 15 -13 13 -77z m-258 -28 c0 -42 -3 -55 -15 -55 -12 0 -15 13 -15 55 0 42 3 55 15 55 12 0 15 -13 15 -55z m410 -110 c0 -13 -33 -15 -240 -15 -219 0 -253 3 -233 23 3 4 111 7 240 7 200 0 233 -2 233 -15z" fill="#f2ba37"/>
<path d="M540 1218 c-49 -33 -69 -92 -49 -144 18 -48 69 -84 118 -84 61 0 120 53 121 108 0 20 -5 22 -55 22 l-54 0 -3 58 c-3 49 -6 57 -23 60 -12 2 -36 -8 -55 -20z m42 -80 l3 -53 48 -3 c26 -2 47 -7 47 -12 0 -16 -44 -40 -73 -40 -36 0 -87 49 -87 83 0 25 34 77 50 77 5 0 10 -24 12 -52z" fill="#f2ba37"/>
<path d="M287 1000 c-111 -20 -157 -70 -157 -175 0 -48 -4 -64 -20 -78 -16 -13 -20 -29 -20 -75 0 -65 11 -82 52 -82 22 0 32 -8 47 -38 11 -21 26 -44 34 -50 8 -7 12 -22 10 -35 -4 -19 -17 -27 -77 -45 -53 -15 -81 -30 -109 -58 l-37 -37 0 -124 0 -123 143 0 142 -1 27 -39 c15 -22 32 -40 37 -40 4 0 20 18 35 40 l26 39 142 3 143 3 3 111 c2 101 1 113 -20 144 -28 42 -81 73 -153 90 -64 15 -74 36 -38 77 13 15 31 40 39 56 9 17 23 27 38 27 12 0 30 8 39 18 24 26 22 102 -2 133 -12 16 -20 46 -23 91 -3 47 -10 76 -24 95 -43 59 -167 92 -277 73z m196 -58 c47 -18 67 -58 67 -133 0 -57 -23 -66 -28 -11 -3 26 -10 35 -36 46 -18 7 -43 26 -55 42 l-22 28 -51 -28 c-36 -20 -67 -30 -102 -31 l-51 -2 -5 -43 c-3 -24 -11 -45 -19 -48 -11 -4 -13 10 -9 67 3 56 8 76 25 93 46 45 197 56 286 20z m-25 -131 c12 -6 22 -20 22 -29 0 -10 7 -27 15 -38 21 -27 19 -130 -3 -174 -51 -103 -201 -108 -262 -8 -25 41 -28 162 -5 192 8 11 15 28 15 37 0 13 12 19 43 24 23 4 58 15 77 25 34 18 36 18 55 0 11 -9 30 -23 43 -29z m-288 -136 c0 -38 -3 -45 -20 -45 -17 0 -20 7 -20 45 0 38 3 45 20 45 17 0 20 -7 20 -45z m418 -3 c3 -37 1 -42 -17 -42 -18 0 -21 6 -21 46 0 38 3 45 18 42 12 -2 18 -15 20 -46z m-148 -229 c0 -7 -8 -28 -17 -48 -16 -33 -20 -35 -64 -35 -43 0 -49 3 -68 36 -33 56 -30 59 64 59 60 0 85 -4 85 -12z m-174 -82 c21 -38 21 -43 7 -127 -7 -48 -11 -94 -9 -101 4 -10 -18 -13 -104 -13 l-110 0 0 96 c0 93 1 97 29 123 28 26 106 58 146 60 13 1 27 -12 41 -38z m282 24 c29 -9 68 -30 87 -46 l35 -31 0 -94 0 -94 -110 0 -110 0 0 28 c0 15 -5 61 -11 102 -11 71 -10 77 11 113 25 42 27 43 98 22z m-149 -134 c15 -96 14 -106 -15 -153 l-26 -41 -29 44 c-28 43 -28 47 -19 109 17 109 17 110 49 110 27 0 28 -3 40 -69z" fill="#f2ba37"/>
<path d="M981 596 c-5 -6 -12 -21 -15 -33 -9 -27 -23 -29 -55 -7 -22 16 -24 15 -57 -17 -35 -34 -42 -57 -23 -76 18 -18 3 -41 -28 -45 -26 -3 -28 -6 -31 -56 -3 -51 -2 -53 27 -63 31 -11 42 -41 21 -54 -18 -11 -11 -38 17 -67 28 -30 52 -35 70 -17 18 18 40 4 46 -30 6 -30 9 -31 57 -31 48 0 52 2 61 30 11 30 41 41 54 20 11 -18 39 -10 72 21 31 31 31 33 17 61 -18 35 -14 44 26 51 29 6 30 8 30 61 0 52 -1 55 -30 61 -33 7 -38 24 -15 58 13 21 12 25 -20 60 -35 38 -35 38 -66 22 -34 -18 -46 -13 -51 25 -3 22 -9 26 -51 31 -28 3 -51 1 -56 -5z m73 -61 c8 -33 51 -51 85 -35 19 9 27 8 39 -3 12 -13 12 -18 -1 -38 -14 -21 -14 -28 -2 -56 9 -22 21 -33 35 -33 15 0 20 -6 20 -25 0 -18 -5 -25 -20 -25 -11 0 -27 -12 -37 -26 -14 -22 -15 -31 -5 -56 17 -46 -4 -63 -46 -37 -26 16 -76 -8 -80 -39 -4 -29 -52 -32 -52 -3 0 37 -78 69 -95 40 -5 -7 -13 -5 -25 6 -17 16 -18 19 -4 40 19 29 4 72 -31 85 -33 13 -33 46 0 54 35 9 52 49 38 86 -15 40 5 58 39 36 20 -13 27 -13 56 -1 21 9 32 21 32 35 0 32 46 27 54 -5z" fill="#f2ba37"/>
<path d="M973 455 c-81 -35 -90 -152 -15 -201 32 -21 96 -20 129 1 13 9 32 33 40 53 21 50 2 107 -46 139 -39 26 -63 28 -108 8z m98 -54 c35 -36 37 -61 6 -97 -46 -54 -130 -23 -130 47 0 23 8 39 27 56 36 31 61 29 97 -6z" fill="#f2ba37"/>
</g>
</svg>