<svg xmlns="http://www.w3.org/2000/svg" version="1.0" width="128.000000pt" height="128.000000pt" viewBox="0 0 128.000000 128.000000" preserveAspectRatio="xMidYMid meet">

<g transform="translate(0.000000,128.000000) scale(0.100000,-0.100000)" fill="#f2ba37" stroke="none">
<path d="M131 1166 c-53 -29 -66 -98 -27 -143 l25 -28 -42 -10 -42 -11 0 -134 c0 -130 1 -135 21 -138 19 -3 22 -12 27 -93 4 -50 9 -95 13 -100 7 -12 141 -12 148 0 4 5 9 50 13 100 5 81 8 90 27 93 16 2 22 11 24 41 3 32 0 37 -17 37 -14 0 -21 -6 -21 -20 0 -13 -7 -20 -19 -20 -20 0 -31 -34 -31 -100 0 -21 -3 -52 -6 -69 -6 -28 -10 -31 -44 -31 -34 0 -38 3 -44 31 -3 17 -6 48 -6 69 0 66 -11 100 -32 100 -17 0 -18 7 -16 102 l3 103 47 8 c27 4 69 4 96 0 38 -7 48 -13 50 -31 2 -14 10 -22 23 -22 17 0 20 6 17 38 -3 34 -6 38 -45 47 l-41 10 24 28 c69 81 -31 195 -125 143z m89 -46 c11 -11 20 -29 20 -40 0 -26 -34 -60 -60 -60 -26 0 -60 34 -60 60 0 26 34 60 60 60 11 0 29 -9 40 -20z" fill="#f2ba37"/>
<path d="M591 1166 c-28 -16 -50 -52 -51 -84 0 -29 27 -82 43 -83 6 -1 -8 -6 -33 -13 l-45 -12 0 -134 c0 -130 1 -135 21 -138 19 -3 22 -12 27 -93 4 -50 9 -95 13 -100 3 -5 18 -9 34 -9 l28 0 -21 -40 -22 -40 -158 0 -159 0 -28 30 c-36 38 -81 40 -115 5 -33 -32 -33 -78 0 -110 35 -35 79 -33 115 5 l29 31 145 -3 145 -3 -70 -127 c-39 -70 -68 -132 -64 -138 9 -14 421 -14 430 0 4 6 -25 68 -64 138 l-70 127 135 3 135 3 29 -31 c36 -38 80 -40 115 -5 33 32 33 78 0 110 -34 35 -79 33 -115 -5 l-28 -30 -149 0 -148 0 -21 40 -22 39 32 3 c29 3 32 6 41 58 11 53 12 55 45 58 19 2 39 7 43 11 7 7 -28 326 -39 342 -2 4 -23 10 -46 14 -34 6 -39 9 -27 19 96 70 -5 220 -110 162z m89 -46 c11 -11 20 -29 20 -40 0 -11 -9 -29 -20 -40 -11 -11 -29 -20 -40 -20 -11 0 -29 9 -40 20 -11 11 -20 29 -20 40 0 11 9 29 20 40 11 11 29 20 40 20 11 0 29 -9 40 -20z m56 -185 c6 -8 16 -65 23 -127 7 -62 14 -121 17 -130 4 -13 -3 -17 -33 -20 -38 -3 -38 -4 -48 -58 l-11 -55 -41 -3 c-38 -3 -41 -1 -47 29 -3 17 -6 48 -6 69 0 66 -11 100 -32 100 -17 0 -18 7 -16 103 l3 102 35 7 c50 9 143 -1 156 -17z m-526 -510 c15 -18 10 -45 -12 -59 -35 -22 -74 27 -48 59 16 19 44 19 60 0z m900 0 c26 -32 -13 -81 -47 -59 -23 14 -28 41 -13 59 16 19 44 19 60 0z m-387 -134 c42 -77 77 -142 77 -145 0 -3 -72 -6 -160 -6 -88 0 -160 3 -160 6 0 9 155 284 160 284 3 0 40 -63 83 -139z" fill="#f2ba37"/>
<path d="M580 280 c0 -18 7 -20 60 -20 53 0 60 2 60 20 0 18 -7 20 -60 20 -53 0 -60 -2 -60 -20z" fill="#f2ba37"/>
<path d="M580 200 c0 -18 7 -20 60 -20 53 0 60 2 60 20 0 18 -7 20 -60 20 -53 0 -60 -2 -60 -20z" fill="#f2ba37"/>
<path d="M1031 1166 c-28 -16 -50 -52 -51 -84 0 -29 27 -82 43 -83 6 -1 -8 -6 -33 -13 -45 -12 -45 -12 -52 -65 -3 -29 -8 -98 -10 -154 l-3 -102 31 -3 c31 -3 31 -4 38 -74 3 -39 9 -74 12 -79 7 -12 141 -12 148 0 3 5 9 40 12 79 7 70 7 71 38 74 l31 3 -3 102 c-2 56 -7 125 -10 154 -7 53 -7 53 -52 64 -35 9 -42 13 -29 21 9 5 21 19 28 31 44 85 -53 176 -138 129z m89 -46 c11 -11 20 -29 20 -40 0 -11 -9 -29 -20 -40 -11 -11 -29 -20 -40 -20 -11 0 -29 9 -40 20 -11 11 -20 29 -20 40 0 11 9 29 20 40 11 11 29 20 40 20 11 0 29 -9 40 -20z m52 -176 c7 -4 12 -44 23 -176 l6 -68 -30 0 c-32 0 -41 -17 -41 -80 -1 -68 -8 -80 -51 -80 -42 0 -39 -6 -54 113 -6 44 -8 47 -35 47 l-29 0 6 88 c9 143 13 156 53 164 33 6 138 1 152 -8z" fill="#f2ba37"/>
<path d="M280 840 c0 -13 7 -20 20 -20 13 0 20 7 20 20 0 13 -7 20 -20 20 -13 0 -20 -7 -20 -20z" fill="#f2ba37"/>
</g>
</svg>