<svg xmlns="http://www.w3.org/2000/svg" version="1.0" width="360.000000pt" height="360.000000pt" viewBox="0 0 360.000000 360.000000" preserveAspectRatio="xMidYMid meet">

<g transform="translate(0.000000,360.000000) scale(0.100000,-0.100000)" fill="#949fb2" stroke="none">
<path d="M1631 3140 c-511 -65 -960 -438 -1115 -927 -47 -152 -60 -237 -60 -408 0 -383 128 -693 398 -961 198 -197 415 -312 696 -370 118 -25 383 -25 499 -1 286 61 502 177 702 376 199 200 315 416 376 702 24 116 24 381 -1 499 -58 281 -173 498 -370 696 -202 204 -429 325 -707 379 -102 20 -317 27 -418 15z m-181 -520 c41 -21 105 -78 132 -118 l15 -22 49 22 c91 40 399 37 485 -6 29 -14 30 -14 87 46 58 61 115 98 151 98 15 0 23 -11 32 -42 16 -57 16 -154 0 -201 -12 -36 -12 -40 12 -65 62 -64 94 -209 84 -381 -6 -129 -32 -194 -108 -275 -67 -72 -146 -116 -257 -143 -58 -14 -71 -20 -66 -33 36 -84 38 -98 42 -317 l4 -223 -229 0 -228 0 3 107 3 108 -103 0 c-92 0 -108 3 -154 27 -65 34 -112 87 -160 179 -22 43 -61 96 -92 127 -54 53 -59 72 -19 72 76 0 138 -44 214 -152 53 -76 172 -115 269 -89 39 11 42 13 46 56 3 24 14 62 25 84 l20 39 -65 13 c-92 17 -209 78 -265 137 -92 99 -123 200 -113 372 8 159 30 234 83 291 22 24 24 30 14 65 -14 51 -14 157 1 205 13 45 29 49 88 19z" fill="#949fb2"/>
</g>
</svg>