<?xml version="1.0" encoding="UTF-8"?>
<svg xmlns="http://www.w3.org/2000/svg" xmlns:xlink="http://www.w3.org/1999/xlink" width="171px" height="171px" viewBox="0 0 171 171" version="1.1">
<g id="surface1">
<rect x="0" y="0" width="171" height="171" style="fill:rgb(100%,100%,100%);fill-opacity:0.0117647;stroke:none;"/>
<path style=" stroke:none;fill-rule:evenodd;fill:rgb(94.901961%,72.941176%,21.568627%);fill-opacity:1;" d="M 85.5 14.25 C 46.148438 14.25 14.25 46.148438 14.25 85.5 C 14.25 124.851562 46.148438 156.75 85.5 156.75 C 124.851562 156.75 156.75 124.851562 156.75 85.5 C 156.75 46.148438 124.851562 14.25 85.5 14.25 Z M 0 85.5 C 0 38.28125 38.28125 0 85.5 0 C 132.71875 0 171 38.28125 171 85.5 C 171 132.71875 132.71875 171 85.5 171 C 38.28125 171 0 132.71875 0 85.5 Z M 0 85.5 "/>
<path style=" stroke:none;fill-rule:evenodd;fill:rgb(94.901961%,72.941176%,21.568627%);fill-opacity:1;" d="M 68.339844 161.992188 C 67.652344 161.101562 67.652344 153.175781 68.339844 138.21875 C 60.957031 138.472656 56.296875 137.960938 54.347656 136.679688 C 51.429688 134.761719 48.507812 128.84375 45.917969 124.671875 C 43.324219 120.5 37.570312 119.84375 35.246094 118.910156 C 32.921875 117.976562 32.339844 114.175781 41.648438 117.050781 C 50.957031 119.925781 51.414062 127.753906 54.347656 129.582031 C 57.285156 131.414062 64.308594 130.613281 67.488281 129.148438 C 70.671875 127.679688 70.4375 122.222656 71.007812 120.058594 C 71.722656 118.039062 69.195312 117.589844 69.140625 117.574219 C 66.03125 117.574219 49.710938 114.027344 45.226562 98.21875 C 40.742188 82.414062 46.519531 72.082031 49.601562 67.644531 C 51.652344 64.683594 51.472656 58.371094 49.054688 48.710938 C 57.832031 47.589844 64.605469 50.351562 69.375 57 C 69.378906 57.039062 75.625 53.285156 85.5 53.285156 C 95.375 53.285156 98.878906 56.34375 101.582031 57 C 104.285156 57.65625 106.445312 45.363281 123.144531 48.710938 C 119.65625 55.5625 116.738281 64.125 118.964844 67.644531 C 121.195312 71.160156 129.9375 82.347656 124.566406 98.21875 C 120.988281 108.804688 113.945312 115.253906 103.449219 117.574219 C 102.246094 117.960938 101.644531 118.578125 101.644531 119.433594 C 101.644531 120.71875 103.269531 120.855469 105.613281 126.867188 C 107.179688 130.871094 107.289062 142.3125 105.953125 161.191406 C 102.566406 162.054688 99.929688 162.632812 98.046875 162.929688 C 94.707031 163.453125 91.082031 163.75 87.519531 163.863281 C 83.957031 163.976562 82.71875 163.964844 77.792969 163.503906 C 74.511719 163.199219 71.359375 162.695312 68.339844 161.992188 Z M 68.339844 161.992188 "/>
</g>
</svg>
