<?xml version="1.0" encoding="UTF-8"?>
<svg xmlns="http://www.w3.org/2000/svg" xmlns:xlink="http://www.w3.org/1999/xlink" width="171px" height="171px" viewBox="0 0 171 171" version="1.1">
<g id="surface1">
<path style=" stroke:none;fill-rule:nonzero;fill:rgb(94.901961%,72.941176%,21.568627%);fill-opacity:1;" d="M 80.988281 43.035156 C 69.871094 44.699219 62.9375 48.117188 55.335938 55.765625 C 48.449219 62.746094 45.125 69.113281 43.460938 78.660156 C 42.558594 83.835938 42.558594 87.164062 43.460938 92.339844 C 45.125 101.886719 48.449219 108.253906 55.335938 115.234375 C 64.125 124.117188 73.292969 127.964844 85.5 127.964844 C 93.8125 127.964844 100.511719 126.160156 107.539062 121.980469 C 111.957031 119.367188 119.367188 111.957031 121.980469 107.539062 C 129.722656 94.476562 130.148438 78.851562 123.167969 65.550781 C 120.933594 61.371094 118.324219 58.046875 114.09375 54.101562 C 106.589844 47.121094 97.753906 43.414062 87.398438 43.035156 C 84.644531 42.890625 81.796875 42.941406 80.988281 43.035156 Z M 74.148438 69.207031 C 77.898438 71.441406 75.335938 76.902344 71.011719 75.808594 C 68.164062 75.097656 67.59375 70.824219 70.203125 69.253906 C 71.820312 68.210938 72.4375 68.210938 74.148438 69.207031 Z M 99.179688 78.753906 C 102.125 80.84375 102.316406 81.84375 102.503906 92.71875 L 102.695312 102.601562 L 95.476562 102.601562 L 95.476562 94.859375 C 95.476562 86.449219 95.191406 85.214844 92.957031 84.171875 C 91.914062 83.648438 91.296875 83.648438 89.964844 84.074219 C 87.351562 84.976562 86.925781 86.496094 86.925781 95.238281 L 86.925781 102.601562 L 79.800781 102.601562 L 79.800781 77.898438 L 87.257812 77.898438 L 87.019531 79.421875 L 86.828125 80.988281 L 88.160156 79.753906 C 90.441406 77.710938 91.296875 77.378906 94.523438 77.519531 C 96.851562 77.664062 98.039062 77.949219 99.179688 78.753906 Z M 75.859375 90.109375 L 75.761719 102.363281 L 68.636719 102.363281 L 68.496094 90.109375 L 68.398438 77.898438 L 76 77.898438 Z M 75.859375 90.109375 "/>
</g>
</svg>
