<svg xmlns="http://www.w3.org/2000/svg" version="1.0" width="360.000000pt" height="360.000000pt" viewBox="0 0 360.000000 360.000000" preserveAspectRatio="xMidYMid meet">

<g transform="translate(0.000000,360.000000) scale(0.100000,-0.100000)" fill="#949fb2" stroke="none">
<path d="M1705 2694 c-234 -35 -380 -107 -540 -268 -145 -147 -215 -281 -250 -482 -19 -109 -19 -179 0 -288 35 -201 105 -335 250 -482 185 -187 378 -268 635 -268 175 0 316 38 464 126 93 55 249 211 304 304 163 275 172 604 25 884 -47 88 -102 158 -191 241 -158 147 -344 225 -562 233 -58 3 -118 2 -135 0z m-144 -551 c79 -47 25 -162 -66 -139 -60 15 -72 105 -17 138 34 22 47 22 83 1z m527 -201 c62 -44 66 -65 70 -294 l4 -208 -76 0 -76 0 0 163 c0 177 -6 203 -53 225 -22 11 -35 11 -63 2 -55 -19 -64 -51 -64 -235 l0 -155 -75 0 -75 0 0 260 0 260 78 0 79 0 -5 -32 -4 -33 28 26 c48 43 66 50 134 47 49 -3 74 -9 98 -26z m-491 -239 l-2 -258 -75 0 -75 0 -3 258 -2 257 80 0 80 0 -3 -257z" fill="#949fb2"/>
</g>
</svg>