<svg xmlns="http://www.w3.org/2000/svg" version="1.0" width="128.000000pt" height="128.000000pt" viewBox="0 0 128.000000 128.000000" preserveAspectRatio="xMidYMid meet">

<g transform="translate(0.000000,128.000000) scale(0.100000,-0.100000)" fill="#f2ba37" stroke="none">
<path d="M643 1235 c-12 -9 -25 -31 -29 -50 l-6 -35 -68 0 c-75 0 -104 -16 -80 -45 11 -13 59 -15 321 -15 l309 0 0 -69 c0 -77 16 -105 46 -80 13 10 15 29 12 91 -5 114 -2 112 -208 116 l-170 3 0 28 c0 58 -77 91 -127 56z m75 -63 c3 -18 -1 -22 -22 -22 -19 0 -26 5 -26 18 0 39 43 43 48 4z" fill="#f2ba37"/>
<path d="M266 1129 l-26 -21 2 -216 c3 -209 4 -217 23 -217 19 0 20 8 23 208 l2 207 44 0 c27 0 48 6 56 15 35 43 -73 64 -124 24z" fill="#f2ba37"/>
<path d="M530 944 c-47 -44 -50 -45 -72 -30 -28 20 -47 20 -55 0 -7 -18 53 -84 76 -84 21 0 131 110 131 131 0 36 -31 29 -80 -17z" fill="#f2ba37"/>
<path d="M674 975 c-4 -8 -4 -22 0 -30 5 -13 28 -15 153 -13 l148 3 0 25 0 25 -148 3 c-125 2 -148 0 -153 -13z" fill="#f2ba37"/>
<path d="M677 874 c-4 -4 -7 -16 -7 -26 0 -17 8 -18 103 -16 94 3 102 4 102 23 0 18 -8 20 -95 23 -53 1 -99 0 -103 -4z" fill="#f2ba37"/>
<path d="M833 603 l-273 -278 3 -65 2 -65 73 -3 72 -3 201 206 c111 113 205 205 210 205 22 0 4 -30 -51 -85 -48 -47 -60 -66 -60 -90 0 -34 34 -75 63 -75 21 0 22 33 2 50 -24 20 -18 32 45 95 48 47 60 66 60 90 0 17 -5 36 -12 43 -9 9 -2 23 35 60 62 63 62 89 3 148 -75 75 -63 83 -373 -233z m305 90 l-68 -67 -35 34 -35 34 67 68 68 68 35 -35 35 -35 -67 -67z m-141 -75 l33 -32 -172 -173 c-163 -163 -175 -173 -210 -173 -36 0 -38 2 -38 32 0 28 22 53 172 205 95 95 174 173 177 173 3 0 20 -14 38 -32z" fill="#f2ba37"/>
<path d="M528 674 l-46 -47 -27 21 c-29 23 -55 20 -55 -7 0 -18 59 -81 75 -81 20 0 136 121 133 138 -6 31 -32 23 -80 -24z" fill="#f2ba37"/>
<path d="M677 713 c-4 -3 -7 -15 -7 -25 0 -16 9 -18 74 -18 75 0 99 13 73 39 -12 12 -129 16 -140 4z" fill="#f2ba37"/>
<path d="M185 594 c-47 -26 -66 -46 -86 -89 -26 -56 -24 -113 5 -168 24 -44 24 -46 6 -52 -10 -3 -33 -22 -49 -41 -29 -32 -31 -41 -31 -108 0 -109 -6 -106 237 -106 191 0 201 1 219 21 14 16 19 36 19 83 -1 72 -22 116 -71 142 l-32 17 24 45 c45 84 23 181 -52 239 -46 34 -141 43 -189 17z m165 -69 c58 -56 63 -126 14 -184 -95 -113 -282 4 -218 136 42 84 142 108 204 48z m75 -310 c21 -20 25 -34 25 -80 0 -52 -1 -55 -25 -55 -23 0 -25 4 -25 44 0 44 -19 74 -40 61 -5 -3 -10 -28 -10 -56 l0 -49 -80 0 -80 0 0 38 c0 21 -6 47 -14 57 -22 30 -46 3 -46 -51 0 -40 -2 -44 -25 -44 -24 0 -25 3 -25 55 0 46 4 60 25 80 23 24 29 25 160 25 131 0 137 -1 160 -25z" fill="#f2ba37"/>
<path d="M672 588 c2 -15 10 -23 23 -23 30 0 27 39 -3 43 -20 3 -23 0 -20 -20z" fill="#f2ba37"/>
<path d="M1096 274 c-3 -9 -6 -56 -6 -105 l0 -89 -262 -2 c-255 -3 -263 -4 -263 -23 0 -19 8 -20 271 -23 325 -3 307 -10 313 124 1 47 0 96 -3 109 -7 28 -40 34 -50 9z" fill="#f2ba37"/>
</g>
</svg>